<?xml version="1.0" encoding="utf-8"?>
<!-- Generator: Adobe Illustrator 28.1.0, SVG Export Plug-In . SVG Version: 6.00 Build 0)  -->
<svg version="1.1" id="Layer_1" xmlns="http://www.w3.org/2000/svg" xmlns:xlink="http://www.w3.org/1999/xlink" x="0px" y="0px"
	 viewBox="0 0 417.5 157.9" style="enable-background:new 0 0 417.5 157.9;" xml:space="preserve">
<g>
	<g>
		<path d="M46.7,77.2V72h-5.2h-5.2v-5.2h-5.2h-5.2h-5.2h-5.2V72h5.2h5.2v5.2h-5.2h-5.2V72h-5.2v-5.2v-5.2h5.2v-5.2h5.2v-5.2h5.2
			v-5.2h-5.2v-5.2v-5.2h-5.2v-5.2h-5.2v-5.2h5.2v-5.2h5.2h5.2v-5.2h5.2V9.5h5.2v5.2h5.2h5.2v5.2h5.2h5.2h5.2v5.2h-5.2v5.2v5.2h5.2
			v5.2V46v5.2v5.2h5.2v5.2h-5.2v5.2h-5.2v5.2h-5.2v5.2L46.7,77.2L46.7,77.2z M46.7,61.6h5.2v-5.2v-5.2v-5.2v-5.2h-5.2h-5.2v-5.2h5.2
			v-5.2h-5.2h-5.2v-5.2h-5.2v-5.2h-5.2v5.2v5.2h5.2v5.2h5.2v5.2h5.2V46h-5.2h-5.2v5.2v5.2h5.2h5.2v5.2L46.7,61.6L46.7,61.6z
			 M25.9,82.5v-5.2h5.2v5.2H25.9z M62.4,14.7h-5.2h-5.2V9.5h5.2h5.2V14.7z M62.4,19.9v-5.2h5.2v5.2H62.4z"/>
	</g>
	<g>
		<path d="M92,72H76.3v-5.2h-5.2V51.2h5.2V46H92v-5.2H76.3v-5.2h20.9v5.2h5.2v26.1h5.2V72H97.2v-5.2H92l0,0V51.2H81.6v15.7H92V72z"
			/>
	</g>
	<g>
		<path d="M114.8,40.8h-5.2v-5.2H120v5.2h5.2V72h-10.4V40.8z M125.2,35.5h15.7v5.2h5.2V72h-10.4V40.8h-10.4L125.2,35.5L125.2,35.5z"
			/>
	</g>
	<g>
		<path d="M149.2,35.5h10.4V25.1h5.2v-5.2h5.2v15.6h10.4v5.2h-10.4v26.1h5.2v-5.2h10.4v5.2h-5.2v5.2h-15.6v-5.2h-5.2V40.8h-10.4
			L149.2,35.5L149.2,35.5z"/>
	</g>
	<g>
		<path d="M192.2,35.5h15.6v31.3h5.2V72h-20.9v-5.2h5.2V40.8h-5.2L192.2,35.5L192.2,35.5z M197.4,19.9h10.4v10.4h-10.4V19.9z"/>
	</g>
	<g>
		<path d="M240.9,72h-15.6v-5.2h-5.2V51.2h5.2V46h15.6v-5.2h-15.6v-5.2h20.9v5.2h5.2v26.1h5.2V72h-10.4v-5.2H241l0,0V51.2h-10.4
			v15.7h10.4V72z"/>
	</g>
	<g>
		<path d="M284.1,40.8L284.1,40.8l5.2,0v-5.2h10.4v5.2h-5.2v41.7h-5.2v5.2h-20.9v-5.2h-5.2v-5.2h10.4v5.2h10.4V72h-15.6v-5.2h-5.2
			V40.8h5.2v-5.2h15.6L284.1,40.8l-10.4,0v26.1h10.4L284.1,40.8L284.1,40.8z"/>
	</g>
	<g>
		<path d="M308.7,66.8h-5.2V40.8h5.2v-5.2h26.1v5.2h5.2v26.1h-5.2v5.2h-26.1V66.8z M329.5,40.8h-15.6v26.1h15.6V40.8z"/>
	</g>
	<g>
		<path d="M168,147.8v-5.2h-5.2h-5.2v-5.2h-5.2h-5.2v-5.2h-5.2v-5.2h-5.2v-5.2h-5.2v-5.2v-5.2v-5.2v-5.2h5.2v-5.2h5.2v-5.2h5.2v-5.2
			h5.2V80h5.2h5.2v-5.2h5.2V80h5.2v5.2h5.2v5.2h5.2h5.2v5.2v5.2h-5.2v5.2h5.2v5.2h5.2v5.2v5.2v5.2h-5.2v5.2h-5.2v-5.2v-5.2h-5.2
			v-5.2h-5.2H168v5.2h5.2v5.2H168v-5.2h-5.2v5.2h5.2v5.2h5.2h5.2h5.2v5.2h-5.2v5.2h-5.2v5.2H168z M157.6,121.8v-5.2v-5.2v-5.2v-5.2
			v-5.2v-5.2v-5.2h-5.2v5.2h-5.2v5.2h-5.2v5.2v5.2v5.2h5.2v5.2h5.2v5.2H157.6z M173.2,111.3v-5.2h5.2v-5.2h-5.2v-5.2H168v5.2v5.2
			v5.2H173.2z M188.9,80h-5.2v-5.2h5.2V80z M188.9,90.4v-5.2V80h5.2v5.2v5.2H188.9z"/>
	</g>
	<g>
		<path d="M196.9,100.9h15.6v31.3h5.2v5.2h-20.9v-5.2h5.2v-26.1h-5.2L196.9,100.9L196.9,100.9z M202.1,85.2h10.4v10.4h-10.4V85.2z"
			/>
	</g>
	<g>
		<path d="M244.1,111.3h-5.2v20.9h5.2v5.2h-20.9v-5.2h5.2v-26.1h-5.2v-5.2h10.4v5.2h5.2v-5.2h15.6v5.2h5.2v10.4h-10.4v-10.4h-5.2
			L244.1,111.3L244.1,111.3z"/>
	</g>
	<g>
		<path d="M285.6,137.4H270v-5.2h-5.2v-15.7h5.2v-5.2h15.6v-5.2H270v-5.2h20.9v5.2h5.2v26.1h5.2v5.2h-10.4v-5.2h-5.2l0,0v-15.6
			h-10.4v15.7h10.4L285.6,137.4L285.6,137.4z"/>
	</g>
	<g>
		<path d="M305.3,85.2h15.6v46.9h5.2v5.2h-20.9v-5.2h5.2V90.4h-5.2L305.3,85.2L305.3,85.2z"/>
	</g>
	<g>
		<path d="M352.2,106.1H347v5.2h-5.2v20.9h10.4l0,0v5.2h-15.6v-5.2h-5.2v-20.9h5.2v-5.2h5.2v-5.2h10.4V90.4h-5.2v-5.2h15.6v46.9h5.2
			v5.2h-10.4v-5.2h-5.2L352.2,106.1L352.2,106.1z"/>
	</g>
	<g>
		<path d="M376.2,132.2H371v-26.1h5.2v-5.2h26.1v5.2h5.2v26.1h-5.2v5.2h-26.1V132.2z M397.1,106.1h-15.6v26.1h15.6V106.1z"/>
	</g>
</g>
</svg>
