<?xml version="1.0" encoding="utf-8"?>
<!-- Generator: Adobe Illustrator 28.1.0, SVG Export Plug-In . SVG Version: 6.00 Build 0)  -->
<svg version="1.1" id="Layer_1" xmlns="http://www.w3.org/2000/svg" xmlns:xlink="http://www.w3.org/1999/xlink" x="0px" y="0px"
	 viewBox="0 0 417.47 157.9" style="enable-background:new 0 0 417.47 157.9;" xml:space="preserve">
<style type="text/css">
	.st0{fill:#D0DF5D;}
</style>
<g>
	<g>
		<path class="st0" d="M46.72,77.25v-5.22h-5.22h-5.22v-5.22h-5.22h-5.22h-5.22h-5.22v5.22h5.22h5.22v5.22h-5.22h-5.22v-5.22h-5.22
			v-5.22v-5.22h5.22v-5.22h5.22v-5.22h5.22v-5.22h-5.22v-5.22v-5.22h-5.22v-5.22h-5.22V25.1h5.22v-5.22h5.22h5.22v-5.22h5.22V9.46
			h5.22v5.22h5.22h5.22v5.22h5.22h5.22h5.22v5.22h-5.22v5.22v5.22h5.22v5.22v5.22v5.22v5.22h5.22v5.22h-5.22v5.22h-5.22v5.22h-5.22
			v5.22H46.72z M46.72,61.61h5.22v-5.22v-5.22v-5.22v-5.22h-5.22h-5.22v-5.22h5.22v-5.22h-5.22h-5.22V25.1h-5.22v-5.22h-5.22v5.22
			v5.22h5.22v5.22h5.22v5.22h5.22v5.22h-5.22h-5.22v5.22v5.22h5.22h5.22v5.22H46.72z M25.86,82.47v-5.22h5.22v5.22H25.86z
			 M62.37,14.67h-5.22h-5.22V9.46h5.22h5.22V14.67z M62.37,19.89v-5.22h5.22v5.22H62.37z"/>
	</g>
	<g>
		<path class="st0" d="M91.99,72.04H76.34v-5.22h-5.22V51.18h5.22v-5.22h15.65v-5.22H76.34v-5.22H97.2v5.22h5.22v26.08h5.22v5.22
			H97.2v-5.22h-5.17l-0.04-0.04v-15.6H81.56v15.65h10.43V72.04z"/>
	</g>
	<g>
		<path class="st0" d="M114.81,40.75h-5.22v-5.22h10.43v5.22h5.22v31.29h-10.43V40.75z M125.24,35.53h15.65v5.22h5.22v31.29h-10.43
			V40.75h-10.43V35.53z"/>
	</g>
	<g>
		<path class="st0" d="M149.23,35.53h10.43V25.1h5.22v-5.22h5.22v15.65h10.43v5.22h-10.43v26.08h5.22v-5.22h10.43v5.22h-5.22v5.22
			h-15.65v-5.22h-5.22V40.75h-10.43V35.53z"/>
	</g>
	<g>
		<path class="st0" d="M192.21,35.53h15.65v31.29h5.22v5.22h-20.86v-5.22h5.22V40.75h-5.22V35.53z M197.43,19.89h10.43v10.43h-10.43
			V19.89z"/>
	</g>
	<g>
		<path class="st0" d="M240.93,72.04h-15.65v-5.22h-5.22V51.18h5.22v-5.22h15.65v-5.22h-15.65v-5.22h20.86v5.22h5.22v26.08h5.22
			v5.22h-10.43v-5.22h-5.17l-0.04-0.04v-15.6H230.5v15.65h10.43V72.04z"/>
	</g>
	<g>
		<path class="st0" d="M284.11,40.79l0.04-0.04h5.17v-5.22h10.43v5.22h-5.22v41.72h-5.22v5.22h-20.86v-5.22h-5.22v-5.22h10.43v5.22
			h10.43V72.04h-15.65v-5.22h-5.22V40.75h5.22v-5.22h15.65v5.22h-10.43v26.08h10.43V40.79z"/>
	</g>
	<g>
		<path class="st0" d="M308.69,66.82h-5.22V40.75h5.22v-5.22h26.08v5.22h5.22v26.08h-5.22v5.22h-26.08V66.82z M329.55,40.75h-15.65
			v26.08h15.65V40.75z"/>
	</g>
	<g>
		<path class="st0" d="M168.04,147.82v-5.22h-5.22h-5.22v-5.22h-5.22h-5.22v-5.22h-5.22v-5.22h-5.22v-5.22h-5.22v-5.22v-5.22v-5.22
			v-5.22h5.22v-5.22h5.22v-5.22h5.22v-5.22h5.22v-5.22h5.22h5.22v-5.22h5.22v5.22h5.22v5.22h5.22v5.22h5.22h5.22v5.22v5.22h-5.22
			v5.22h5.22v5.22h5.22v5.22v5.22v5.22h-5.22v5.22h-5.22v-5.22v-5.22h-5.22v-5.22h-5.22h-5.22v5.22h5.22v5.22h-5.22v-5.22h-5.22
			v5.22h5.22v5.22h5.22h5.22h5.22v5.22h-5.22v5.22h-5.22v5.22H168.04z M157.61,121.75v-5.22v-5.22v-5.22v-5.22v-5.22v-5.22v-5.22
			h-5.22v5.22h-5.22v5.22h-5.22v5.22v5.22v5.22h5.22v5.22h5.22v5.22H157.61z M173.25,111.32v-5.22h5.22v-5.22h-5.22v-5.22h-5.22
			v5.22v5.22v5.22H173.25z M188.9,80.02h-5.22v-5.22h5.22V80.02z M188.9,90.45v-5.22v-5.22h5.22v5.22v5.22H188.9z"/>
	</g>
	<g>
		<path class="st0" d="M196.91,100.88h15.65v31.29h5.22v5.22h-20.86v-5.22h5.22V106.1h-5.22V100.88z M202.12,85.24h10.43v10.43
			h-10.43V85.24z"/>
	</g>
	<g>
		<path class="st0" d="M244.09,111.32h-5.22v20.86h5.22v5.22h-20.86v-5.22h5.22V106.1h-5.22v-5.22h10.43v5.22h5.22v-5.22h15.65v5.22
			h5.22v10.43h-10.43V106.1h-5.22V111.32z"/>
	</g>
	<g>
		<path class="st0" d="M285.6,137.39h-15.65v-5.22h-5.22v-15.65h5.22v-5.22h15.65v-5.22h-15.65v-5.22h20.86v5.22h5.22v26.08h5.22
			v5.22h-10.43v-5.22h-5.17l-0.04-0.04v-15.6h-10.43v15.65h10.43V137.39z"/>
	</g>
	<g>
		<path class="st0" d="M305.29,85.24h15.65v46.94h5.22v5.22h-20.86v-5.22h5.22V90.45h-5.22V85.24z"/>
	</g>
	<g>
		<path class="st0" d="M352.17,106.1h-5.22v5.22h-5.22v20.86h10.39l0.04,0.04v5.17h-15.65v-5.22h-5.22v-20.86h5.22v-5.22h5.22v-5.22
			h10.43V90.45h-5.22v-5.22h15.65v46.94h5.22v5.22h-10.43v-5.22h-5.22V106.1z"/>
	</g>
	<g>
		<path class="st0" d="M376.24,132.18h-5.22V106.1h5.22v-5.22h26.08v5.22h5.22v26.08h-5.22v5.22h-26.08V132.18z M397.1,106.1h-15.65
			v26.08h15.65V106.1z"/>
	</g>
</g>
</svg>
